{
	"asset":{
		"version":"2.0",
		"generator":"Maxon Cinema 4D 2023.2.1 (#200000219)"
	},
	"scenes":[{
		"nodes":[0]
	}],
	"buffers":[{
		"uri":"data:application/octet-stream;base64,",
		"byteLength":47200
	},
	{
		"uri":"data:application/octet-stream;base64,",
		"byteLength":27696
	},
	{
		"uri":"data:application/octet-stream;base64,",
		"byteLength":5764
	},
	{
		"uri":"data:application/octet-stream;base64,",
		"byteLength":9096
	},
	{
		"uri":"data:application/octet-stream;base64,",
		"byteLength":2840
	},
	{
		"uri":"data:application/octet-stream;base64,",
		"byteLength":5764
	},
	{
		"uri":"data:application/octet-stream;base64,",
		"byteLength":11528
	},
	{
		"uri":"data:application/octet-stream;base64,",
		"byteLength":15760
	},
	{
		"uri":"data:application/octet-stream;base64,",
		"byteLength":15760
	},
	{
		"uri":"data:application/octet-stream;base64,",
		"byteLength":840
	},
	{
		"uri":"data:application/octet-stream;base64,",
		"byteLength":840
	},
	{
		"uri":"data:application/octet-stream;base64,",
		"byteLength":840
	},
	{
		"uri":"data:application/octet-stream;base64,",
		"byteLength":706456
	},
	{
		"uri":"data:application/octet-stream;base64,",
		"byteLength":20384
	},
	{
		"uri":"data:application/octet-stream;base64,",
		"byteLength":16768
	}],
	"nodes":[{
		"name":"buds1",
		"translation":[0.616619348526001,
		3.821580410003662,
		0.45632100105285647],
		"rotation":[-0.00038746901554986835,
		-0.99900883436203,
		0.0088744992390275,
		-0.04361766576766968],
		"scale":[0.6174988150596619,
		0.6174988150596619,
		0.6174988150596619],
		"children":[1,
		2,
		3,
		4]
	},
	{
		"name":"ear piece",
		"translation":[0.017261486500501634,
		0.9396759271621704,
		-0.0076192268170416359],
		"rotation":[0.0,
		-0.7071067690849304,
		0.0,
		-0.7071067690849304],
		"scale":[1.0,
		1.0,
		1.0],
		"children":[5]
	},
	{
		"name":"top button",
		"translation":[-1.7339758370519572e-16,
		2.8317975997924806,
		0.0],
		"rotation":[0.0,
		0.0,
		0.7071067690849304,
		-0.7071067690849304],
		"scale":[1.0,
		1.0,
		1.0],
		"children":[6,
		7,
		8,
		9,
		10,
		11,
		12,
		13]
	},
	{
		"name":"Cloth Surface",
		"translation":[-6.188806056976318,
		-0.6491391062736511,
		-1.0591824054718018],
		"rotation":[-0.4777144193649292,
		-0.4777144193649292,
		-0.5213338136672974,
		0.5213338136672974],
		"scale":[1.619436264038086,
		1.619436264038086,
		1.619436264038086],
		"children":[14]
	},
	{
		"name":"Chargers",
		"translation":[0.1351291984319687,
		4.4776611328125,
		-0.0443444661796093],
		"rotation":[0.0,
		0.0,
		0.0,
		-1.0],
		"scale":[1.0,
		1.0,
		1.0],
		"children":[15,
		16,
		17]
	},
	{
		"name":"Lathe_remesh",
		"mesh":0,
		"translation":[0.0,
		0.7866884469985962,
		-0.2401932179927826],
		"rotation":[0.7071067690849304,
		0.0,
		0.0,
		-0.7071067690849304],
		"scale":[2.0483884811401369,
		2.0483884811401369,
		2.0483884811401369]
	},
	{
		"name":"top button-primary_color",
		"mesh":1
	},
	{
		"name":"top button-secondary_color",
		"mesh":2
	},
	{
		"name":"top button-secondary_color",
		"mesh":3
	},
	{
		"name":"top button-primary_color",
		"mesh":4
	},
	{
		"name":"top button-primary_color",
		"mesh":5
	},
	{
		"name":"top button-primary_color",
		"mesh":6
	},
	{
		"name":"top button-primary_color",
		"mesh":7
	},
	{
		"name":"top button-primary_color",
		"mesh":8
	},
	{
		"name":"bottom",
		"translation":[0.464216023683548,
		3.821580410003662,
		2.198298692703247],
		"rotation":[-1.9673324544910065e-18,
		-0.6755902171134949,
		1.802728062086323e-18,
		-0.7372773289680481],
		"scale":[0.6174988150596619,
		0.6174988150596619,
		0.6174988150596619],
		"children":[18,
		19,
		20]
	},
	{
		"name":"Cube.2",
		"mesh":9,
		"translation":[-0.0006139151519164443,
		0.002535196952521801,
		0.19306902587413789],
		"rotation":[-0.00012151010741945356,
		-0.002629324793815613,
		0.05469333007931709,
		-0.9984997510910034],
		"scale":[0.07793694734573364,
		0.07793694734573364,
		0.07793693989515305]
	},
	{
		"name":"Cube.1",
		"mesh":10,
		"translation":[-0.001045643468387425,
		-0.00020253499678801745,
		-0.001595007604919374],
		"rotation":[-0.0003012493543792516,
		-0.0011476855725049973,
		-0.05554629862308502,
		0.9984554052352905],
		"scale":[0.07793693989515305,
		0.07793693989515305,
		0.07793693989515305]
	},
	{
		"name":"Cube",
		"mesh":11,
		"translation":[0.0016595586203038693,
		-0.0023326619993895294,
		-0.19147402048110963],
		"rotation":[-0.00012915949628222734,
		-0.014880797825753689,
		-0.055633947253227237,
		0.9983403086662293],
		"scale":[0.07793693989515305,
		0.07793693244457245,
		0.07793693989515305]
	},
	{
		"name":"bottom-secondary_color",
		"mesh":12
	},
	{
		"name":"bottom-Speaker",
		"mesh":13
	},
	{
		"name":"bottom-Speaker",
		"mesh":14
	}],
	"meshes":[{
		"name":"Lathe_remesh",
		"primitives":[{
			"attributes":{
				"POSITION":1,
				"NORMAL":2,
				"TEXCOORD_0":3
			},
			"indices":0,
			"material":0
		}]
	},
	{
		"name":"top button-primary_color",
		"primitives":[{
			"attributes":{
				"POSITION":5,
				"NORMAL":6,
				"TEXCOORD_0":7
			},
			"indices":4,
			"material":1
		}]
	},
	{
		"name":"top button-secondary_color",
		"primitives":[{
			"attributes":{
				"POSITION":9,
				"NORMAL":10,
				"TEXCOORD_0":11
			},
			"indices":8,
			"material":2
		}]
	},
	{
		"name":"top button-secondary_color",
		"primitives":[{
			"attributes":{
				"POSITION":13,
				"NORMAL":14,
				"TEXCOORD_0":15
			},
			"indices":12,
			"material":2
		}]
	},
	{
		"name":"top button-primary_color",
		"primitives":[{
			"attributes":{
				"POSITION":17,
				"NORMAL":18,
				"TEXCOORD_0":19
			},
			"indices":16,
			"material":1
		}]
	},
	{
		"name":"top button-primary_color",
		"primitives":[{
			"attributes":{
				"POSITION":21,
				"NORMAL":22,
				"TEXCOORD_0":23
			},
			"indices":20,
			"material":1
		}]
	},
	{
		"name":"top button-primary_color",
		"primitives":[{
			"attributes":{
				"POSITION":25,
				"NORMAL":26,
				"TEXCOORD_0":27
			},
			"indices":24,
			"material":1
		}]
	},
	{
		"name":"top button-primary_color",
		"primitives":[{
			"attributes":{
				"POSITION":29,
				"NORMAL":30,
				"TEXCOORD_0":31
			},
			"indices":28,
			"material":1
		}]
	},
	{
		"name":"top button-primary_color",
		"primitives":[{
			"attributes":{
				"POSITION":33,
				"NORMAL":34,
				"TEXCOORD_0":35
			},
			"indices":32,
			"material":1
		}]
	},
	{
		"name":"Cube.2",
		"primitives":[{
			"attributes":{
				"POSITION":37,
				"NORMAL":38,
				"TEXCOORD_0":39
			},
			"indices":36
		}]
	},
	{
		"name":"Cube.1",
		"primitives":[{
			"attributes":{
				"POSITION":41,
				"NORMAL":42,
				"TEXCOORD_0":43
			},
			"indices":40
		}]
	},
	{
		"name":"Cube",
		"primitives":[{
			"attributes":{
				"POSITION":45,
				"NORMAL":46,
				"TEXCOORD_0":47
			},
			"indices":44
		}]
	},
	{
		"name":"bottom-secondary_color",
		"primitives":[{
			"attributes":{
				"POSITION":49,
				"NORMAL":50,
				"TEXCOORD_0":51
			},
			"indices":48,
			"material":2
		}]
	},
	{
		"name":"bottom-Speaker",
		"primitives":[{
			"attributes":{
				"POSITION":53,
				"NORMAL":54,
				"TEXCOORD_0":55
			},
			"indices":52,
			"material":3
		}]
	},
	{
		"name":"bottom-Speaker",
		"primitives":[{
			"attributes":{
				"POSITION":57,
				"NORMAL":58,
				"TEXCOORD_0":59
			},
			"indices":56,
			"material":3
		}]
	}],
	"accessors":[{
		"bufferView":0,
		"type":"SCALAR",
		"componentType":5123,
		"count":6000,
		"byteOffset":0,
		"min":[0],
		"max":[1099]
	},
	{
		"bufferView":1,
		"type":"VEC3",
		"componentType":5126,
		"count":1100,
		"byteOffset":0,
		"min":[-0.5008243322372437,
		-0.002396687399595976,
		-0.5000312924385071],
		"max":[0.4972198009490967,
		0.5137022137641907,
		0.4995552897453308]
	},
	{
		"bufferView":1,
		"type":"VEC3",
		"componentType":5126,
		"count":1100,
		"byteOffset":12,
		"min":[-0.9999156594276428,
		-0.9999974966049194,
		-0.9993319511413574],
		"max":[0.999936044216156,
		0.9991247653961182,
		0.999512255191803]
	},
	{
		"bufferView":1,
		"type":"VEC2",
		"componentType":5126,
		"count":1100,
		"byteOffset":24,
		"min":[-1.0380157150491343e-10,
		0.00868230126798153],
		"max":[1.0000001192092896,
		0.972322940826416]
	},
	{
		"bufferView":2,
		"type":"SCALAR",
		"componentType":5123,
		"count":2919,
		"byteOffset":0,
		"min":[0],
		"max":[682]
	},
	{
		"bufferView":3,
		"type":"VEC3",
		"componentType":5126,
		"count":683,
		"byteOffset":0,
		"min":[-2.9549660682678224,
		1.7306716442108155,
		-2.0409321784973146],
		"max":[2.9577620029449465,
		1.8588939905166627,
		2.0409321784973146]
	},
	{
		"bufferView":3,
		"type":"VEC3",
		"componentType":5126,
		"count":683,
		"byteOffset":12,
		"min":[-0.9909971356391907,
		-1.0,
		-0.9944892525672913],
		"max":[0.9923052787780762,
		0.44360795617103579,
		0.9944947361946106]
	},
	{
		"bufferView":3,
		"type":"VEC2",
		"componentType":5126,
		"count":683,
		"byteOffset":24,
		"min":[0.0,
		0.0],
		"max":[1.0,
		0.6898177862167358]
	},
	{
		"bufferView":4,
		"type":"SCALAR",
		"componentType":5123,
		"count":450,
		"byteOffset":0,
		"min":[0],
		"max":[151]
	},
	{
		"bufferView":5,
		"type":"VEC3",
		"componentType":5126,
		"count":152,
		"byteOffset":0,
		"min":[-2.6144115924835207,
		1.8217551708221436,
		-1.803778886795044],
		"max":[2.616889238357544,
		1.8472726345062256,
		1.803778886795044]
	},
	{
		"bufferView":5,
		"type":"VEC3",
		"componentType":5126,
		"count":152,
		"byteOffset":12,
		"min":[-0.7199484705924988,
		0.5458588004112244,
		-0.8378669619560242],
		"max":[0.7202919721603394,
		0.6935102939605713,
		0.837867021560669]
	},
	{
		"bufferView":5,
		"type":"VEC2",
		"componentType":5126,
		"count":152,
		"byteOffset":24,
		"min":[0.0,
		0.9288946390151978],
		"max":[1.0,
		1.0]
	},
	{
		"bufferView":6,
		"type":"SCALAR",
		"componentType":5123,
		"count":900,
		"byteOffset":0,
		"min":[0],
		"max":[227]
	},
	{
		"bufferView":7,
		"type":"VEC3",
		"componentType":5126,
		"count":228,
		"byteOffset":0,
		"min":[-2.663501739501953,
		1.7707204818725587,
		-1.8365720510482789],
		"max":[2.666027545928955,
		1.8220994472503663,
		1.8365720510482789]
	},
	{
		"bufferView":7,
		"type":"VEC3",
		"componentType":5126,
		"count":228,
		"byteOffset":12,
		"min":[-0.7466955780982971,
		0.5096299648284912,
		-0.8603832721710205],
		"max":[0.7470677495002747,
		0.7218756079673767,
		0.8600176572799683]
	},
	{
		"bufferView":7,
		"type":"VEC2",
		"componentType":5126,
		"count":228,
		"byteOffset":24,
		"min":[0.0,
		0.7866835594177246],
		"max":[1.0,
		0.9288946390151978]
	},
	{
		"bufferView":8,
		"type":"SCALAR",
		"componentType":5123,
		"count":219,
		"byteOffset":0,
		"min":[0],
		"max":[74]
	},
	{
		"bufferView":9,
		"type":"VEC3",
		"componentType":5126,
		"count":75,
		"byteOffset":0,
		"min":[-2.5898663997650148,
		1.8472726345062256,
		-1.7873823642730713],
		"max":[2.592319965362549,
		1.8472726345062256,
		1.7873823642730713]
	},
	{
		"bufferView":9,
		"type":"VEC3",
		"componentType":5126,
		"count":75,
		"byteOffset":12,
		"min":[0.0,
		1.0,
		0.0],
		"max":[0.0,
		1.0,
		0.0]
	},
	{
		"bufferView":9,
		"type":"VEC2",
		"componentType":5126,
		"count":75,
		"byteOffset":24,
		"min":[0.0,
		0.0],
		"max":[1.0,
		0.6898177862167358]
	},
	{
		"bufferView":10,
		"type":"SCALAR",
		"componentType":5123,
		"count":450,
		"byteOffset":0,
		"min":[0],
		"max":[151]
	},
	{
		"bufferView":11,
		"type":"VEC3",
		"componentType":5126,
		"count":152,
		"byteOffset":0,
		"min":[-2.80680513381958,
		1.7393896579742432,
		-1.9371014833450318],
		"max":[2.8094642162323,
		1.7524751424789429,
		1.9371014833450318]
	},
	{
		"bufferView":11,
		"type":"VEC3",
		"componentType":5126,
		"count":152,
		"byteOffset":12,
		"min":[-0.46853891015052798,
		0.8230118155479431,
		-0.5679541230201721],
		"max":[0.4683893322944641,
		0.883389413356781,
		0.5679542422294617]
	},
	{
		"bufferView":11,
		"type":"VEC2",
		"componentType":5126,
		"count":152,
		"byteOffset":24,
		"min":[0.0,
		0.710242509841919],
		"max":[1.0,
		0.71134352684021]
	},
	{
		"bufferView":12,
		"type":"SCALAR",
		"componentType":5123,
		"count":900,
		"byteOffset":0,
		"min":[0],
		"max":[303]
	},
	{
		"bufferView":13,
		"type":"VEC3",
		"componentType":5126,
		"count":304,
		"byteOffset":0,
		"min":[-2.8138253688812258,
		1.7524751424789429,
		-1.9427108764648438],
		"max":[2.8164892196655275,
		1.8588939905166627,
		1.9427108764648438]
	},
	{
		"bufferView":13,
		"type":"VEC3",
		"componentType":5126,
		"count":304,
		"byteOffset":12,
		"min":[-0.958717405796051,
		0.21969331800937653,
		-0.9755570292472839],
		"max":[0.9581327438354492,
		0.3394163250923157,
		0.9755571484565735]
	},
	{
		"bufferView":13,
		"type":"VEC2",
		"componentType":5126,
		"count":304,
		"byteOffset":24,
		"min":[0.0,
		0.3909894824028015],
		"max":[1.0,
		0.710242509841919]
	},
	{
		"bufferView":14,
		"type":"SCALAR",
		"componentType":5123,
		"count":1800,
		"byteOffset":0,
		"min":[0],
		"max":[379]
	},
	{
		"bufferView":15,
		"type":"VEC3",
		"componentType":5126,
		"count":380,
		"byteOffset":0,
		"min":[-2.9418911933898927,
		1.8588939905166627,
		-2.0303304195404054],
		"max":[2.9446780681610109,
		1.8809771537780762,
		2.0303304195404054]
	},
	{
		"bufferView":15,
		"type":"VEC3",
		"componentType":5126,
		"count":380,
		"byteOffset":12,
		"min":[-0.4935155212879181,
		0.812737762928009,
		-0.5823248028755188],
		"max":[0.49369457364082339,
		0.9999716281890869,
		0.5823792219161987]
	},
	{
		"bufferView":15,
		"type":"VEC2",
		"componentType":5126,
		"count":380,
		"byteOffset":24,
		"min":[0.0,
		0.38466042280197146],
		"max":[1.0,
		0.3909894824028015]
	},
	{
		"bufferView":16,
		"type":"SCALAR",
		"componentType":5123,
		"count":1800,
		"byteOffset":0,
		"min":[0],
		"max":[379]
	},
	{
		"bufferView":17,
		"type":"VEC3",
		"componentType":5126,
		"count":380,
		"byteOffset":0,
		"min":[-2.782163619995117,
		1.737038493156433,
		-1.921341896057129],
		"max":[2.784796953201294,
		1.771753191947937,
		1.921341896057129]
	},
	{
		"bufferView":17,
		"type":"VEC3",
		"componentType":5126,
		"count":380,
		"byteOffset":12,
		"min":[-0.5282021760940552,
		0.7497491240501404,
		-0.6617143154144287],
		"max":[0.5284129977226257,
		0.9991781711578369,
		0.6614248156547546]
	},
	{
		"bufferView":17,
		"type":"VEC2",
		"componentType":5126,
		"count":380,
		"byteOffset":24,
		"min":[0.0,
		0.71134352684021],
		"max":[1.0,
		0.7866835594177246]
	},
	{
		"bufferView":18,
		"type":"SCALAR",
		"componentType":5123,
		"count":36,
		"byteOffset":0,
		"min":[0],
		"max":[23]
	},
	{
		"bufferView":19,
		"type":"VEC3",
		"componentType":5126,
		"count":24,
		"byteOffset":0,
		"min":[-0.39447537064552309,
		-1.7946184873580933,
		-1.0],
		"max":[0.39447537064552309,
		1.7946184873580933,
		1.0]
	},
	{
		"bufferView":19,
		"type":"VEC3",
		"componentType":5126,
		"count":24,
		"byteOffset":12,
		"min":[-1.0,
		-1.0,
		-1.0],
		"max":[1.0,
		1.0,
		1.0]
	},
	{
		"bufferView":19,
		"type":"VEC2",
		"componentType":5126,
		"count":24,
		"byteOffset":24,
		"min":[0.0,
		0.0],
		"max":[1.0,
		1.0]
	},
	{
		"bufferView":20,
		"type":"SCALAR",
		"componentType":5123,
		"count":36,
		"byteOffset":0,
		"min":[0],
		"max":[23]
	},
	{
		"bufferView":21,
		"type":"VEC3",
		"componentType":5126,
		"count":24,
		"byteOffset":0,
		"min":[-0.39447537064552309,
		-1.7946184873580933,
		-1.0],
		"max":[0.39447537064552309,
		1.7946184873580933,
		1.0]
	},
	{
		"bufferView":21,
		"type":"VEC3",
		"componentType":5126,
		"count":24,
		"byteOffset":12,
		"min":[-1.0,
		-1.0,
		-1.0],
		"max":[1.0,
		1.0,
		1.0]
	},
	{
		"bufferView":21,
		"type":"VEC2",
		"componentType":5126,
		"count":24,
		"byteOffset":24,
		"min":[0.0,
		0.0],
		"max":[1.0,
		1.0]
	},
	{
		"bufferView":22,
		"type":"SCALAR",
		"componentType":5123,
		"count":36,
		"byteOffset":0,
		"min":[0],
		"max":[23]
	},
	{
		"bufferView":23,
		"type":"VEC3",
		"componentType":5126,
		"count":24,
		"byteOffset":0,
		"min":[-0.39447537064552309,
		-1.7946184873580933,
		-1.0],
		"max":[0.39447537064552309,
		1.7946184873580933,
		1.0]
	},
	{
		"bufferView":23,
		"type":"VEC3",
		"componentType":5126,
		"count":24,
		"byteOffset":12,
		"min":[-1.0,
		-1.0,
		-1.0],
		"max":[1.0,
		1.0,
		1.0]
	},
	{
		"bufferView":23,
		"type":"VEC2",
		"componentType":5126,
		"count":24,
		"byteOffset":24,
		"min":[0.0,
		0.0],
		"max":[1.0,
		1.0]
	},
	{
		"bufferView":24,
		"type":"SCALAR",
		"componentType":5123,
		"count":92316,
		"byteOffset":0,
		"min":[0],
		"max":[16306]
	},
	{
		"bufferView":25,
		"type":"VEC3",
		"componentType":5126,
		"count":16307,
		"byteOffset":0,
		"min":[-3.2830541133880617,
		-0.4738295078277588,
		-2.264038562774658],
		"max":[3.2830779552459719,
		1.731847882270813,
		2.264038562774658]
	},
	{
		"bufferView":25,
		"type":"VEC3",
		"componentType":5126,
		"count":16307,
		"byteOffset":12,
		"min":[-1.0,
		-0.9999948740005493,
		-0.9999861717224121],
		"max":[1.0,
		0.9999948740005493,
		0.9999672770500183]
	},
	{
		"bufferView":25,
		"type":"VEC2",
		"componentType":5126,
		"count":16307,
		"byteOffset":24,
		"min":[0.0,
		0.0],
		"max":[1.0,
		1.0]
	},
	{
		"bufferView":26,
		"type":"SCALAR",
		"componentType":5123,
		"count":2256,
		"byteOffset":0,
		"min":[0],
		"max":[495]
	},
	{
		"bufferView":27,
		"type":"VEC3",
		"componentType":5126,
		"count":496,
		"byteOffset":0,
		"min":[-0.3056739270687103,
		0.5860387086868286,
		1.549655556678772],
		"max":[2.0901477336883547,
		0.8111475706100464,
		2.1684770584106447]
	},
	{
		"bufferView":27,
		"type":"VEC3",
		"componentType":5126,
		"count":496,
		"byteOffset":12,
		"min":[-0.9987262487411499,
		-0.9553846716880798,
		-0.9550372958183289],
		"max":[0.8065876960754395,
		0.9122928977012634,
		0.9550461769104004]
	},
	{
		"bufferView":27,
		"type":"VEC2",
		"componentType":5126,
		"count":496,
		"byteOffset":24,
		"min":[10.422826766967774,
		7.847801208496094],
		"max":[12.552461624145508,
		9.071499824523926]
	},
	{
		"bufferView":28,
		"type":"SCALAR",
		"componentType":5123,
		"count":1824,
		"byteOffset":0,
		"min":[0],
		"max":[409]
	},
	{
		"bufferView":29,
		"type":"VEC3",
		"componentType":5126,
		"count":410,
		"byteOffset":0,
		"min":[-2.367330551147461,
		0.5828902125358582,
		-2.123948812484741],
		"max":[-0.6288033127784729,
		0.8125849962234497,
		-1.3675103187561036]
	},
	{
		"bufferView":29,
		"type":"VEC3",
		"componentType":5126,
		"count":410,
		"byteOffset":12,
		"min":[-0.7770472764968872,
		-0.9542917609214783,
		-0.9425169825553894],
		"max":[0.9892221689224243,
		0.9098870158195496,
		0.9424958229064941]
	},
	{
		"bufferView":29,
		"type":"VEC2",
		"componentType":5126,
		"count":410,
		"byteOffset":24,
		"min":[4.090559959411621,
		7.831972122192383],
		"max":[5.691272735595703,
		9.081615447998047]
	}],
	"bufferViews":[{
		"buffer":0,
		"byteOffset":0,
		"byteLength":12000,
		"target":34963
	},
	{
		"buffer":0,
		"byteOffset":12000,
		"byteLength":35200,
		"target":34962,
		"byteStride":32
	},
	{
		"buffer":1,
		"byteOffset":0,
		"byteLength":5838,
		"target":34963
	},
	{
		"buffer":1,
		"byteOffset":5840,
		"byteLength":21856,
		"target":34962,
		"byteStride":32
	},
	{
		"buffer":2,
		"byteOffset":0,
		"byteLength":900,
		"target":34963
	},
	{
		"buffer":2,
		"byteOffset":900,
		"byteLength":4864,
		"target":34962,
		"byteStride":32
	},
	{
		"buffer":3,
		"byteOffset":0,
		"byteLength":1800,
		"target":34963
	},
	{
		"buffer":3,
		"byteOffset":1800,
		"byteLength":7296,
		"target":34962,
		"byteStride":32
	},
	{
		"buffer":4,
		"byteOffset":0,
		"byteLength":438,
		"target":34963
	},
	{
		"buffer":4,
		"byteOffset":440,
		"byteLength":2400,
		"target":34962,
		"byteStride":32
	},
	{
		"buffer":5,
		"byteOffset":0,
		"byteLength":900,
		"target":34963
	},
	{
		"buffer":5,
		"byteOffset":900,
		"byteLength":4864,
		"target":34962,
		"byteStride":32
	},
	{
		"buffer":6,
		"byteOffset":0,
		"byteLength":1800,
		"target":34963
	},
	{
		"buffer":6,
		"byteOffset":1800,
		"byteLength":9728,
		"target":34962,
		"byteStride":32
	},
	{
		"buffer":7,
		"byteOffset":0,
		"byteLength":3600,
		"target":34963
	},
	{
		"buffer":7,
		"byteOffset":3600,
		"byteLength":12160,
		"target":34962,
		"byteStride":32
	},
	{
		"buffer":8,
		"byteOffset":0,
		"byteLength":3600,
		"target":34963
	},
	{
		"buffer":8,
		"byteOffset":3600,
		"byteLength":12160,
		"target":34962,
		"byteStride":32
	},
	{
		"buffer":9,
		"byteOffset":0,
		"byteLength":72,
		"target":34963
	},
	{
		"buffer":9,
		"byteOffset":72,
		"byteLength":768,
		"target":34962,
		"byteStride":32
	},
	{
		"buffer":10,
		"byteOffset":0,
		"byteLength":72,
		"target":34963
	},
	{
		"buffer":10,
		"byteOffset":72,
		"byteLength":768,
		"target":34962,
		"byteStride":32
	},
	{
		"buffer":11,
		"byteOffset":0,
		"byteLength":72,
		"target":34963
	},
	{
		"buffer":11,
		"byteOffset":72,
		"byteLength":768,
		"target":34962,
		"byteStride":32
	},
	{
		"buffer":12,
		"byteOffset":0,
		"byteLength":184632,
		"target":34963
	},
	{
		"buffer":12,
		"byteOffset":184632,
		"byteLength":521824,
		"target":34962,
		"byteStride":32
	},
	{
		"buffer":13,
		"byteOffset":0,
		"byteLength":4512,
		"target":34963
	},
	{
		"buffer":13,
		"byteOffset":4512,
		"byteLength":15872,
		"target":34962,
		"byteStride":32
	},
	{
		"buffer":14,
		"byteOffset":0,
		"byteLength":3648,
		"target":34963
	},
	{
		"buffer":14,
		"byteOffset":3648,
		"byteLength":13120,
		"target":34962,
		"byteStride":32
	}],
	"materials":[{
		"doubleSided":false,
		"pbrMetallicRoughness":{
			"baseColorFactor":[1.0,
			1.0,
			1.0,
			1.0],
			"metallicFactor":1.0,
			"roughnessFactor":1.0
		},
		"emissiveFactor":[0.0,
		0.0,
		0.0],
		"alphaMode":"OPAQUE",
		"name":""
	},
	{
		"doubleSided":false,
		"pbrMetallicRoughness":{
			"baseColorFactor":[0.93,
			0.8524999999999956,
			0.0,
			1.0],
			"metallicFactor":0.0,
			"roughnessFactor":0.5
		},
		"emissiveFactor":[0.0,
		0.0,
		0.0],
		"alphaMode":"OPAQUE",
		"name":"primary_color"
	},
	{
		"doubleSided":false,
		"pbrMetallicRoughness":{
			"baseColorFactor":[0.0,
			0.0,
			0.0,
			1.0],
			"metallicFactor":0.0,
			"roughnessFactor":0.5
		},
		"emissiveFactor":[0.0,
		0.0,
		0.0],
		"alphaMode":"OPAQUE",
		"name":"secondary_color"
	},
	{
		"doubleSided":false,
		"pbrMetallicRoughness":{
			"baseColorFactor":[0.29008264462809937,
			0.2966942148760331,
			0.3,
			1.0],
			"metallicFactor":1.0,
			"roughnessFactor":0.3000000000000001
		},
		"emissiveFactor":[0.0,
		0.0,
		0.0],
		"alphaMode":"BLEND",
		"name":"Speaker"
	}]
}